Coordinates
version=1
nRows=8
nColumns=40
inDegrees=yes

Units are S.I. units (second, meters, Newtons, ...)
If the header above contains a line with 'inDegrees', this indicates whether rotational values are in degrees (yes) or radians (no).

endheader
time	pelvis_tilt	pelvis_list	pelvis_rotation	pelvis_tx	pelvis_ty	pelvis_tz	hip_flexion_r	hip_adduction_r	hip_rotation_r	knee_angle_r	knee_angle_r_beta	ankle_angle_r	subtalar_angle_r	mtp_angle_r	hip_flexion_l	hip_adduction_l	hip_rotation_l	knee_angle_l	knee_angle_l_beta	ankle_angle_l	subtalar_angle_l	mtp_angle_l	lumbar_extension	lumbar_bending	lumbar_rotation	arm_flex_r	arm_add_r	arm_rot_r	elbow_flex_r	pro_sup_r	wrist_flex_r	wrist_dev_r	arm_flex_l	arm_add_l	arm_rot_l	elbow_flex_l	pro_sup_l	wrist_flex_l	wrist_dev_l
      4.20000000	     -4.01574691	     -0.66096226	      0.91394745	     -0.20090980	      1.21831901	     -0.89904467	      4.60150016	     -7.48626996	    -21.08390190	      1.24067978	      0.02165395	    -39.09827370	      0.00000000	      0.00000000	      3.95480624	    -10.48918520	    -17.12748266	      1.89695622	      0.03310813	    -36.53600822	      0.00000000	      0.00000000	      0.64486091	      1.20090541	      9.56363009	     30.35876267	    -47.59980379	     82.00338104	     78.87342068	     87.12200527	      0.00000000	      0.00000000	     31.40825135	    -43.12325039	     86.02590010	     83.89390521	     87.35541974	      0.00000000	      0.00000000
      4.20500000	     -4.04620997	     -0.68246432	      0.56083611	     -0.20071954	      1.22684591	     -0.89896016	      4.81169413	     -7.42236823	    -20.83841344	      1.92375171	      0.03357580	    -39.19730481	      0.00000000	      0.00000000	      3.94324975	    -10.36589807	    -16.93405691	      2.33371247	      0.04073097	    -36.62491515	      0.00000000	      0.00000000	      0.83416429	      1.30572952	     10.10327606	     30.32174980	    -48.03575838	     81.55134180	     79.20220000	     87.08494451	      0.00000000	      0.00000000	     31.52957997	    -43.07957512	     85.42012417	     84.06082071	     87.29634342	      0.00000000	      0.00000000
      4.21000000	     -3.83899056	     -0.66917015	      0.18112289	     -0.20060561	      1.23549303	     -0.89865869	      4.72904974	     -7.35941433	    -20.69436019	      2.52738273	      0.04411115	    -39.31922058	      0.00000000	      0.00000000	      3.69340636	    -10.22134041	    -16.62791936	      2.88193647	      0.05029928	    -36.91252840	      0.00000000	      0.00000000	      0.75530724	      1.32445511	     10.64191795	     30.48516585	    -48.27759355	     81.39728230	     79.20172461	     87.07549176	      0.00000000	      0.00000000	     31.81422999	    -43.06940034	     85.00162864	     84.20118608	     87.26731373	      0.00000000	      0.00000000
      4.21500000	     -3.80103408	     -0.62569772	     -0.22869729	     -0.20099605	      1.24338844	     -0.89820276	      5.12673360	     -7.45293026	    -20.55831051	      3.74742297	      0.06540487	    -39.25820298	      0.00000000	      0.00000000	      3.71782771	    -10.08776996	    -16.68293808	      3.57799280	      0.06244776	    -36.84742731	      0.00000000	      0.00000000	      0.77908627	      1.32165540	     11.26036846	     30.41120941	    -48.76178462	     80.84221621	     79.71200858	     87.05056831	      0.00000000	      0.00000000	     32.03758599	    -43.04863480	     84.43305203	     84.32683915	     87.23032253	      0.00000000	      0.00000000
      4.22000000	     -3.61091456	     -0.64159399	     -0.47900048	     -0.20118585	      1.25141103	     -0.89790891	      5.14870132	     -7.43954760	    -20.75878468	      4.55451319	      0.07949125	    -39.26723303	      0.00000000	      0.00000000	      3.69007209	    -10.05580512	    -16.73251591	      4.53518251	      0.07915387	    -37.01569668	      0.00000000	      0.00000000	      0.63867366	      1.31787840	     11.90213029	     29.78430867	    -49.18345921	     79.61135692	     79.84732162	     87.03006717	      0.00000000	      0.00000000	     32.59405928	    -42.84348390	     84.21118130	     84.29803197	     87.21728922	      0.00000000	      0.00000000
      4.22500000	     -3.17359157	     -0.59027925	     -0.74009290	     -0.20155951	      1.25933651	     -0.89763197	      4.92084405	     -7.52354607	    -20.90207053	      5.35618801	      0.09348312	    -39.25142390	      0.00000000	      0.00000000	      3.33870111	     -9.91909321	    -16.67107751	      5.21950762	      0.09109759	    -37.00842449	      0.00000000	      0.00000000	      0.19929279	      1.27913575	     12.35620203	     29.94126842	    -49.54795997	     79.32300540	     80.12755151	     87.02997614	      0.00000000	      0.00000000	     33.06595009	    -42.77784007	     83.93314456	     84.32663588	     87.19048886	      0.00000000	      0.00000000
      4.23000000	     -2.88268555	     -0.62092181	     -0.72365568	     -0.20181667	      1.26675673	     -0.89749567	      4.64152702	     -7.49697745	    -21.00220322	      5.81783288	      0.10154034	    -39.27460108	      0.00000000	      0.00000000	      3.21093672	     -9.86774545	    -16.40461269	      5.91644997	      0.10326153	    -37.18597402	      0.00000000	      0.00000000	     -0.03749631	      1.28613421	     12.48466145	     30.09481956	    -49.74295111	     79.14352325	     80.12379389	     87.01626460	      0.00000000	      0.00000000	     33.46717243	    -42.75949548	     83.64875547	     84.34446293	     87.16172442	      0.00000000	      0.00000000
      4.23500000	     -2.35206019	     -0.68395200	     -0.60928668	     -0.20110532	      1.27392895	     -0.89739791	      4.06604365	     -7.49154070	    -22.09917869	      6.38910396	      0.11151090	    -39.22504982	      0.00000000	      0.00000000	      2.79883344	     -9.89238735	    -16.43978898	      6.67297326	      0.11646535	    -36.86320301	      0.00000000	      0.00000000	     -0.47176674	      1.31600271	     12.49487095	     30.06965865	    -50.05303304	     78.78537135	     80.46588116	     86.99177180	      0.00000000	      0.00000000	     33.86730958	    -42.91785925	     83.54068048	     84.54241952	     87.14319835	      0.00000000	      0.00000000
